<svg id="Layer_1" data-name="Layer 1" xmlns="http://www.w3.org/2000/svg" viewBox="0 0 180 135"><defs><style>.cls-1{fill:#e1cc3a;}.cls-2{fill:#414042;}.cls-3,.cls-5{fill:#ed1c24;}.cls-3{opacity:0.28;}.cls-4{font-size:44.23px;font-family:FontAwesome;}.cls-4,.cls-6{fill:#fff;}</style></defs><title>quoata_manager</title><rect class="cls-1" x="2.5" y="2.5" width="175" height="130"/><path class="cls-2" d="M175,5V130H5V5H175m5-5H0V135H180V0h0Z"/><rect class="cls-3" x="5.25" y="34.73" width="169.75" height="63.46"/><text class="cls-4" transform="translate(48 81.73)"></text><text class="cls-4" transform="translate(91 81.73)"></text><text class="cls-4" transform="translate(134 81.73)"></text><rect class="cls-5" x="36.35" y="34.73" width="5.4" height="63.46"/><rect class="cls-6" x="7.8" y="59.61" width="3.16" height="3.16"/><rect class="cls-6" x="7.8" y="53.29" width="3.16" height="3.16"/><path class="cls-6" d="M5.25,76.07a2.85,2.85,0,0,1,.32-0.19,4.9,4.9,0,0,1,2.23-.47,4.9,4.9,0,0,1,2.23.47,1.13,1.13,0,0,1,0,2.22,4.9,4.9,0,0,1-2.23.47,4.9,4.9,0,0,1-2.23-.47,2.86,2.86,0,0,1-.32-0.19v3.47a8.71,8.71,0,0,0,2.55.36,7.33,7.33,0,0,0,4.53-1.34A4.09,4.09,0,0,0,14.12,77a4.51,4.51,0,0,0-.2-1.28l-2.64-8.61a1.57,1.57,0,0,0-.57-0.84,1.54,1.54,0,0,0-1-.32h-2V62.77H5.25v13.3Z"/><path class="cls-6" d="M29.42,55.07a5.76,5.76,0,0,0-1.19-1.88l-7.7-7.7a5.75,5.75,0,0,0-1.88-1.18,5.7,5.7,0,0,0-2.17-.49H5.25V47H7.8v3.16H11V47h3.16V57.24a2.36,2.36,0,0,0,2.37,2.37H26.75V84.88H5.25V88h22.3a2.36,2.36,0,0,0,2.37-2.37V57.24A5.71,5.71,0,0,0,29.42,55.07ZM17.28,56.45V47.17a2.7,2.7,0,0,1,1,.54L26,55.44a2.69,2.69,0,0,1,.54,1H17.28Z"/><rect class="cls-6" x="5.25" y="50.13" width="2.55" height="3.16"/><rect class="cls-6" x="5.25" y="56.45" width="2.55" height="3.16"/></svg>