<svg id="Layer_1" data-name="Layer 1" xmlns="http://www.w3.org/2000/svg" viewBox="0 0 180 135"><defs><style>.cls-1{fill:#1c75bc;}.cls-2{fill:#414042;}.cls-3{fill:#f1f2f2;}.cls-4{fill:#8ed8f8;}.cls-5{fill:none;stroke:#414042;stroke-miterlimit:10;stroke-width:5.66px;}</style></defs><title>level_message</title><rect class="cls-1" x="2.5" y="2.5" width="175" height="130"/><path class="cls-2" d="M175,5V130H5V5H175m5-5H0V135H180V0h0Z"/><rect class="cls-3" x="16.5" y="2.5" width="145.5" height="114.75"/><path class="cls-2" d="M159.5,5V114.75H19V5H159.5m5-5H14V119.75H164.5V0h0Z"/><rect class="cls-4" x="28.58" y="68.61" width="120.59" height="35.06" rx="2.17" ry="2.17"/><path class="cls-2" d="M146.34,71.44v29.4H31.41V71.44H146.34M147,65.77H30.75a5,5,0,0,0-5,5V101.5a5,5,0,0,0,5,5H147a5,5,0,0,0,5-5V70.77a5,5,0,0,0-5-5h0Z"/><line class="cls-5" x1="38.75" y1="79.5" x2="104.75" y2="79.5"/><line class="cls-5" x1="38.75" y1="91.5" x2="122" y2="91.5"/></svg>