<svg id="Layer_1" data-name="Layer 1" xmlns="http://www.w3.org/2000/svg" viewBox="0 0 180 135"><defs><style>.cls-1{fill:#a84499;}.cls-2{fill:#414042;}.cls-3{fill:#f2e3f0;}.cls-4{fill:#fce0a6;}.cls-5{fill:#231f20;}.cls-6{fill:#b8a4b6;}.cls-7{fill:#abdac4;}</style></defs><title>theme_control</title><rect class="cls-1" x="2.5" y="2.5" width="175" height="130"/><path class="cls-2" d="M175,5V130H5V5H175m5-5H0V135H180V0h0Z"/><polygon class="cls-3" points="52.15 44.74 28.48 33.3 56.78 5 91.89 5 52.15 44.74"/><polygon class="cls-3" points="157.99 5 61.13 102.1 37.46 90.66 122.89 5 157.99 5"/><polygon class="cls-3" points="175 28.44 175 63.56 141.15 97.41 117.48 85.96 175 28.44"/><polygon class="cls-4" points="91.89 5 52.15 44.74 28.48 33.3 56.78 5 91.89 5"/><path class="cls-5" d="M37.83,59.05a2.49,2.49,0,0,1-3.5,0L31.7,56.42a2.49,2.49,0,0,0-3.5,0,14,14,0,0,0-1.34,1.5q-0.65.83-1.59,2.2T24,61.91a24.66,24.66,0,0,1-2.11,2.53,20.13,20.13,0,0,1-2.69,2.27,15.47,15.47,0,0,1-2.81,1.58,5.85,5.85,0,0,1-2.69.51,3.37,3.37,0,0,1-3.17-3.17A5.85,5.85,0,0,1,11,62.94a15.07,15.07,0,0,1,1.59-2.81,20.84,20.84,0,0,1,2.28-2.69,23.32,23.32,0,0,1,2.51-2.09l1.83-1.29q1.28-.89,2.14-1.56a16.8,16.8,0,0,0,1.53-1.34,2.52,2.52,0,0,0,0-3.53L20.28,45a2.49,2.49,0,0,1,0-3.5l4.39-4.4L42.23,54.66ZM57.15,39.73A15,15,0,0,1,52,39.9a12.28,12.28,0,0,1-2.17-.57q-1.15-.41-1.9-0.76t-1.81-.94A27.22,27.22,0,0,1,42,34.82q-2-1.66-3.14-2.41A10.22,10.22,0,0,0,35.6,31a9.9,9.9,0,0,0-3.33-.27,3.21,3.21,0,0,0-2.11.86l-3.72,3.72L44,52.89Z"/><polygon class="cls-6" points="157.99 5 61.13 102.1 37.46 90.66 122.89 5 157.99 5"/><path class="cls-5" d="M46.81,116.42a2.49,2.49,0,0,1-3.5,0l-2.63-2.63a2.49,2.49,0,0,0-3.5,0,14,14,0,0,0-1.34,1.5q-0.65.83-1.59,2.2T33,119.27a24.66,24.66,0,0,1-2.11,2.53,20.13,20.13,0,0,1-2.69,2.27,15.47,15.47,0,0,1-2.81,1.58,5.85,5.85,0,0,1-2.69.51A3.37,3.37,0,0,1,19.51,123,5.85,5.85,0,0,1,20,120.3a15.07,15.07,0,0,1,1.59-2.81,20.84,20.84,0,0,1,2.28-2.69,23.32,23.32,0,0,1,2.51-2.09l1.83-1.29q1.28-.89,2.14-1.56a16.8,16.8,0,0,0,1.53-1.34,2.52,2.52,0,0,0,0-3.53l-2.63-2.63a2.49,2.49,0,0,1,0-3.5l4.39-4.4L51.21,112ZM66.13,97.1a15,15,0,0,1-5.16.16,12.28,12.28,0,0,1-2.17-.57q-1.15-.41-1.9-0.76T55.08,95A27.22,27.22,0,0,1,51,92.18q-2-1.66-3.14-2.41a10.22,10.22,0,0,0-3.28-1.38,9.9,9.9,0,0,0-3.33-.27,3.21,3.21,0,0,0-2.11.86L35.42,92.7,53,110.26Z"/><polygon class="cls-7" points="175 28.44 175 63.56 141.15 97.41 117.48 85.96 175 28.44"/><path class="cls-5" d="M126.83,111.72a2.49,2.49,0,0,1-3.5,0l-2.63-2.63a2.49,2.49,0,0,0-3.5,0,14,14,0,0,0-1.34,1.5q-0.65.83-1.59,2.2T113,114.58a24.66,24.66,0,0,1-2.11,2.53,20.13,20.13,0,0,1-2.69,2.27,15.47,15.47,0,0,1-2.81,1.58,5.85,5.85,0,0,1-2.69.51,3.37,3.37,0,0,1-3.17-3.17,5.85,5.85,0,0,1,.51-2.69,15.07,15.07,0,0,1,1.59-2.81,20.84,20.84,0,0,1,2.28-2.69,23.32,23.32,0,0,1,2.51-2.09l1.83-1.29q1.28-.89,2.14-1.56a16.8,16.8,0,0,0,1.53-1.34,2.52,2.52,0,0,0,0-3.53l-2.63-2.63a2.49,2.49,0,0,1,0-3.5l4.39-4.4,17.56,17.56ZM146.15,92.4a15,15,0,0,1-5.16.16,12.28,12.28,0,0,1-2.17-.57q-1.15-.41-1.9-0.76t-1.81-.94A27.22,27.22,0,0,1,131,87.49q-2-1.66-3.14-2.41a10.22,10.22,0,0,0-3.28-1.38,9.9,9.9,0,0,0-3.33-.27,3.21,3.21,0,0,0-2.11.86L115.44,88,133,105.56Z"/></svg>