<?xml version="1.0" encoding="utf-8"?>
<!-- Generator: Adobe Illustrator 19.2.1, SVG Export Plug-In . SVG Version: 6.00 Build 0)  -->
<svg version="1.1" id="Layer_1" xmlns="http://www.w3.org/2000/svg" xmlns:xlink="http://www.w3.org/1999/xlink" x="0px" y="0px"
	 width="16px" height="15.4px" viewBox="0 0 16 15.4" enable-background="new 0 0 16 15.4" xml:space="preserve">
<g>
	<g>
		<ellipse fill="#58595B" cx="8" cy="7.7" rx="7.5" ry="7.2"/>
		<path fill="#FFFFFF" d="M8,15.4c-4.4,0-8-3.5-8-7.7S3.6,0,8,0s8,3.5,8,7.7S12.4,15.4,8,15.4z M8,1.1c-3.8,0-6.9,3-6.9,6.6
			c0,3.6,3.1,6.6,6.9,6.6c3.8,0,6.9-3,6.9-6.6C14.9,4.1,11.8,1.1,8,1.1z"/>
	</g>
	<g>
		<path d="M13.9,7.6h-1.2c-0.1-0.6-0.5-1-1.1-1c-0.6,0-1.1,0.5-1.1,1.1c0-0.5-0.2-1-0.5-1.4c0-0.1-0.1-0.1-0.2-0.2
			c0.4-0.5,1.1-0.8,1.8-0.8C12.8,5.3,13.8,6.3,13.9,7.6z"/>
	</g>
	<path fill="#FFFFFF" d="M13.9,7.8c-0.1,1.3-1.1,2.3-2.4,2.3c-0.7,0-1.3-0.3-1.8-0.8c-0.4-0.4-0.6-1-0.6-1.6c0-0.6,0.2-1.2,0.6-1.6
		c0.1,0.1,0.1,0.1,0.2,0.2c0.3,0.4,0.5,0.9,0.5,1.4c0,0.6,0.5,1.1,1.1,1.1c0.6,0,1.1-0.4,1.1-1H13.9z"/>
	<path fill="#D1D3D4" d="M13.9,7.6h-1.2c-0.1-0.6-0.5-1-1.1-1c-0.6,0-1.1,0.5-1.1,1.1c0-0.5-0.2-1-0.5-1.4c0-0.1-0.1-0.1-0.2-0.2
		c0.4-0.5,1.1-0.8,1.8-0.8C12.8,5.3,13.8,6.3,13.9,7.6z"/>
	<g>
		<path fill="#D1D3D4" d="M9,8.3c0.1,0.4,0.3,0.8,0.6,1.2c-0.4,0.4-1,0.6-1.6,0.6c-0.7,0-1.3-0.3-1.8-0.8c-0.4-0.4-0.6-1-0.6-1.6
			c0-0.2-0.1-0.4-0.2-0.6c-0.2-0.3-0.6-0.5-1-0.5c-0.6,0-1.1,0.5-1.1,1.1c0,0.6,0.5,1.1,1.1,1.1c0.4,0,0.8-0.2,1-0.5
			c0.1,0.4,0.3,0.8,0.6,1.2c-0.4,0.4-1,0.6-1.6,0.6c-1.3,0-2.4-1.1-2.4-2.4c0-1.3,1.1-2.4,2.4-2.4c0.6,0,1.2,0.2,1.6,0.6
			C6.1,6,6.2,6.1,6.2,6.1C6.7,5.6,7.3,5.3,8,5.3c0.6,0,1.2,0.2,1.6,0.6C9.6,6,9.7,6.1,9.8,6.1c-0.4,0.4-0.6,1-0.6,1.6
			c0-0.2-0.1-0.4-0.2-0.6C8.8,6.8,8.4,6.6,8,6.6c-0.6,0-1.1,0.5-1.1,1.1c0,0.6,0.5,1.1,1.1,1.1C8.4,8.8,8.8,8.6,9,8.3z"/>
	</g>
</g>
</svg>
