<svg id="Layer_1" data-name="Layer 1" xmlns="http://www.w3.org/2000/svg" viewBox="0 0 180 135"><defs><style>.cls-1{fill:#86c540;}.cls-2{fill:#414042;}.cls-3{fill:#be1e2d;stroke:#414042;stroke-miterlimit:10;stroke-width:5px;}.cls-4{fill:#fff;}</style></defs><title>plugin_control</title><rect class="cls-1" x="2.5" y="2.5" width="175" height="130"/><path class="cls-2" d="M175,5V130H5V5H175m5-5H0V135H180V0h0Z"/><rect class="cls-3" x="26" y="86.67" width="42.67" height="42.67"/><rect class="cls-3" x="68.67" y="86.67" width="42.67" height="42.67"/><rect class="cls-3" x="111.33" y="86.67" width="42.67" height="42.67"/><rect class="cls-3" x="47.33" y="41.53" width="42.67" height="42.67"/><rect class="cls-3" x="90" y="41.53" width="42.67" height="42.67"/><path class="cls-4" d="M59.74,55.8l1.66-2L77.84,70.2l-2.17,1.53a7,7,0,0,1-3.06,1.52,14.59,14.59,0,0,1-3.92.6H61.62l-2.26,2.26a2.73,2.73,0,0,1-3.87,0,2.59,2.59,0,0,1-.8-1.93,2.65,2.65,0,0,1,.8-1.94L57.75,70V62.9a16.61,16.61,0,0,1,.56-4A6.91,6.91,0,0,1,59.74,55.8Zm14.6-3.23-5.91,5.91L65,55.07l5.91-5.91a1.36,1.36,0,0,1,1.31-.3,3,3,0,0,1,1.53.89,2.91,2.91,0,0,1,.88,1.52A1.36,1.36,0,0,1,74.34,52.57ZM73,63l5.91-5.91a1.33,1.33,0,0,1,1.3-.31,3.36,3.36,0,0,1,2.41,2.4,1.36,1.36,0,0,1-.31,1.31l-5.91,5.93Z"/><path class="cls-4" d="M102.4,58.28l1.66-2,16.45,16.45-2.17,1.53a7,7,0,0,1-3.06,1.52,14.59,14.59,0,0,1-3.92.6h-7.08L102,78.59a2.73,2.73,0,0,1-3.87,0,2.59,2.59,0,0,1-.8-1.93,2.65,2.65,0,0,1,.8-1.94l2.26-2.26V65.38a16.61,16.61,0,0,1,.56-4A6.91,6.91,0,0,1,102.4,58.28ZM117,55L111.09,61l-3.41-3.41,5.91-5.91a1.36,1.36,0,0,1,1.31-.3,3,3,0,0,1,1.53.89,2.91,2.91,0,0,1,.88,1.52A1.36,1.36,0,0,1,117,55Zm-1.35,10.48,5.91-5.91a1.33,1.33,0,0,1,1.3-.31,3.36,3.36,0,0,1,2.41,2.4A1.36,1.36,0,0,1,125,63l-5.91,5.93Z"/><path class="cls-4" d="M38.4,100.94l1.66-2,16.45,16.45-2.17,1.53a7,7,0,0,1-3.06,1.52,14.59,14.59,0,0,1-3.92.6H40.28L38,121.25a2.73,2.73,0,0,1-3.87,0,2.59,2.59,0,0,1-.8-1.93,2.65,2.65,0,0,1,.8-1.94l2.26-2.26V108a16.61,16.61,0,0,1,.56-4A6.91,6.91,0,0,1,38.4,100.94ZM53,97.71l-5.91,5.91-3.41-3.41,5.91-5.91a1.36,1.36,0,0,1,1.31-.3,3,3,0,0,1,1.53.89,2.91,2.91,0,0,1,.88,1.52A1.36,1.36,0,0,1,53,97.71Zm-1.35,10.48,5.91-5.91a1.33,1.33,0,0,1,1.3-.31,3.36,3.36,0,0,1,2.41,2.4,1.36,1.36,0,0,1-.31,1.31l-5.91,5.93Z"/><path class="cls-4" d="M82.4,101.47l1.66-2,16.45,16.45-2.17,1.53a7,7,0,0,1-3.06,1.52,14.59,14.59,0,0,1-3.92.6H84.28L82,121.78a2.73,2.73,0,0,1-3.87,0,2.59,2.59,0,0,1-.8-1.93,2.65,2.65,0,0,1,.8-1.94l2.26-2.26v-7.08a16.61,16.61,0,0,1,.56-4A6.91,6.91,0,0,1,82.4,101.47ZM97,98.24l-5.91,5.91-3.41-3.41,5.91-5.91a1.36,1.36,0,0,1,1.31-.3,3,3,0,0,1,1.53.89,2.91,2.91,0,0,1,.88,1.52A1.36,1.36,0,0,1,97,98.24Zm-1.35,10.48,5.91-5.91a1.33,1.33,0,0,1,1.3-.31,3.36,3.36,0,0,1,2.41,2.4,1.36,1.36,0,0,1-.31,1.31l-5.91,5.93Z"/><path class="cls-4" d="M123.74,100.94l1.66-2,16.45,16.45-2.17,1.53a7,7,0,0,1-3.06,1.52,14.59,14.59,0,0,1-3.92.6h-7.08l-2.26,2.26a2.73,2.73,0,0,1-3.87,0,2.59,2.59,0,0,1-.8-1.93,2.65,2.65,0,0,1,.8-1.94l2.26-2.26V108a16.61,16.61,0,0,1,.56-4A6.91,6.91,0,0,1,123.74,100.94Zm14.6-3.23-5.91,5.91L129,100.21l5.91-5.91a1.36,1.36,0,0,1,1.31-.3,3,3,0,0,1,1.53.89,2.91,2.91,0,0,1,.88,1.52A1.36,1.36,0,0,1,138.34,97.71ZM137,108.18l5.91-5.91a1.33,1.33,0,0,1,1.3-.31,3.36,3.36,0,0,1,2.41,2.4,1.36,1.36,0,0,1-.31,1.31l-5.91,5.93Z"/></svg>